<svg id="Layer_2" data-name="Layer 2" xmlns="http://www.w3.org/2000/svg" viewBox="0 0 487.27 490">
  <g id="anchorpoint">
    <rect x="0" y="238.63" width="121.48" height="12.74" rx="6.37" ry="6.37" fill="#22c55e"/>
    <rect x="365.79" y="238.63" width="121.48" height="12.74" rx="6.37" ry="6.37" fill="#22c55e"/>
    <rect x="235.9" y="0" width="12.74" height="121.48" rx="6.37" ry="6.37" fill="#22c55e"/>
    <rect x="235.9" y="368.52" width="12.74" height="121.48" rx="6.37" ry="6.37" fill="#22c55e"/>
    <path d="m242.95,121.87c32.89,0,63.81,12.81,87.06,36.06,23.26,23.26,36.06,54.17,36.06,87.06s-12.81,63.81-36.06,87.06-54.17,36.06-87.06,36.06-63.81-12.81-87.06-36.06c-23.26-23.26-36.06-54.17-36.06-87.06s12.81-63.81,36.06-87.06c23.26-23.26,54.17-36.06,87.06-36.06m0-12c-74.63,0-135.13,60.5-135.13,135.13s60.5,135.13,135.13,135.13,135.13-60.5,135.13-135.13-60.5-135.13-135.13-135.13h0Z" fill="#f2f2f2"/>
  </g>
</svg>