<svg id="Layer_2" data-name="Layer 2" xmlns="http://www.w3.org/2000/svg" viewBox="0 0 442.55 439.08">
  <g id="Keyframe">
    <path d="m201.76,216.32c2.76,6.3-1.86,13.36-8.74,13.36H9.55c-6.78,0-11.4-6.88-8.82-13.16l50.17-89.05c4.42-7.84,4.42-17.42,0-25.26L.73,13.16C-1.85,6.88,2.76,0,9.55,0h183.48c6.88,0,11.49,7.06,8.74,13.36l-48.34,89.22c-4.14,7.65-4.14,16.87,0,24.52l48.34,89.22Z" fill="#22c55e"/>
    <rect x="250.88" y="33.52" width="162.63" height="162.63" rx="11.21" ry="11.21" transform="translate(16.09 268.53) rotate(-45)" fill="#22c55e"/>
    <rect x="9.05" y="254.6" width="184.48" height="184.48" rx="12.72" ry="12.72" fill="#22c55e"/>
    <rect x="239.95" y="254.6" width="184.48" height="184.48" rx="92.24" ry="92.24" fill="#22c55e"/>
  </g>
</svg>