<svg id="Layer_2" data-name="Layer 2" xmlns="http://www.w3.org/2000/svg" viewBox="0 0 378.24 378.24">
  <g id="Null">
    <rect x="23.24" y="23.12" width="332" height="332" fill="none" stroke="#22c55e" stroke-miterlimit="10" stroke-width="12"/>
    <g>
      <rect x="0" y="0" width="46.24" height="46.24" rx="23.12" ry="23.12" fill="#e6e6e6"/>
      <rect x="332" y="0" width="46.24" height="46.24" rx="23.12" ry="23.12" fill="#e6e6e6"/>
      <rect x="0" y="332" width="46.24" height="46.24" rx="23.12" ry="23.12" fill="#e6e6e6"/>
      <rect x="332" y="332" width="46.24" height="46.24" rx="23.12" ry="23.12" fill="#e6e6e6"/>
    </g>
    <rect x="110.81" y="187.07" width="39.1" height="4.1" rx="2.05" ry="2.05" fill="#22c55e"/>
    <rect x="228.56" y="187.07" width="39.1" height="4.1" rx="2.05" ry="2.05" fill="#22c55e"/>
    <rect x="186.75" y="110.25" width="4.1" height="39.1" rx="2.05" ry="2.05" fill="#22c55e"/>
    <rect x="186.75" y="228.88" width="4.1" height="39.1" rx="2.05" ry="2.05" fill="#22c55e"/>
    <path d="m189.02,149.48c21.85,0,39.64,17.78,39.64,39.64s-17.78,39.64-39.64,39.64-39.64-17.78-39.64-39.64,17.78-39.64,39.64-39.64m0-3.86c-24.02,0-43.5,19.47-43.5,43.5s19.47,43.5,43.5,43.5,43.5-19.47,43.5-43.5-19.47-43.5-43.5-43.5h0Z" fill="#f2f2f2"/>
  </g>
</svg>